<svg t="1729674539722" class="icon" viewBox="0 0 1024 1024" version="1.1" xmlns="http://www.w3.org/2000/svg" p-id="32342" width="200" height="200"><path d="M142.222222 227.555556c17.066667 0 28.444444 11.377778 28.444445 28.444444v682.666667c0 17.066667-11.377778 28.444444-28.444445 28.444444h-113.777778c-17.066667 0-28.444444-11.377778-28.444444-28.444444v-682.666667c0-17.066667 11.377778-28.444444 28.444444-28.444444h113.777778z m284.444445 227.555555c17.066667 0 28.444444 11.377778 28.444444 28.444445v455.111111c0 17.066667-11.377778 28.444444-28.444444 28.444444h-113.777778c-17.066667 0-28.444444-11.377778-28.444445-28.444444v-455.111111c0-17.066667 11.377778-28.444444 28.444445-28.444445h113.777778z m284.444444-455.111111c17.066667 0 28.444444 11.377778 28.444445 28.444444v910.222223c0 17.066667-11.377778 28.444444-28.444445 28.444444h-113.777778c-17.066667 0-28.444444-11.377778-28.444444-28.444444V28.444444c0-17.066667 11.377778-28.444444 28.444444-28.444444h113.777778z m284.444445 341.333333c17.066667 0 28.444444 11.377778 28.444444 28.444445v568.888889c0 17.066667-11.377778 28.444444-28.444444 28.444444h-113.777778c-17.066667 0-28.444444-11.377778-28.444445-28.444444v-568.888889c0-17.066667 11.377778-28.444444 28.444445-28.444445h113.777778z" fill="#999" p-id="32343"></path></svg>