<svg t="1730944206017" class="icon" viewBox="0 0 1024 1024" version="1.1" xmlns="http://www.w3.org/2000/svg" p-id="5779" width="200" height="200"><path d="M449.828687 736.976491a39.795938 39.795938 0 0 1-28.173106-11.691268l-189.911827-189.911828a39.921405 39.921405 0 0 1 56.460273-56.460273l161.62466 161.681691 299.695692-299.695691a39.921405 39.921405 0 0 1 56.460273 56.460273l-327.925829 327.925828a39.795938 39.795938 0 0 1-28.230136 11.691268z" fill="#4490f1" p-id="5780"></path><path d="M514.683861 1023.999989a95.58325 95.58325 0 0 1-47.016009-12.432667L105.30696 805.584278a95.058569 95.058569 0 0 1-48.133808-82.124034L54.378653 306.669368a95.879809 95.879809 0 0 1 47.004603-82.8084L460.972462 13.007512a95.674499 95.674499 0 0 1 95.275285-0.604525l362.33808 205.960233a95.811372 95.811372 0 0 1 48.236463 82.124033l2.794498 416.916344a95.549032 95.549032 0 0 1-47.118664 82.8084L562.920325 1010.939986a95.446377 95.446377 0 0 1-48.236464 13.060003zM509.106271 69.581846a26.416564 26.416564 0 0 0-13.014379 3.490271L136.650966 283.925573a25.504075 25.504075 0 0 0-12.615164 22.310363l2.783093 416.825094a25.709385 25.709385 0 0 0 12.88891 22.036616l362.463547 205.960232a25.561105 25.561105 0 0 0 25.697979-0.182498l360.011232-211.161421h0.091249a25.823446 25.823446 0 0 0 12.090483-22.013803l-2.885748-416.699627a25.834852 25.834852 0 0 0-12.991566-22.127865L521.82409 72.901025A25.971726 25.971726 0 0 0 509.106271 69.581846z" fill="#4490f1" p-id="5781"></path></svg>